<svg id="visual" viewBox="0 0 900 600" width="900" height="600" xmlns="http://www.w3.org/2000/svg" xmlns:xlink="http://www.w3.org/1999/xlink" version="1.1"><rect x="0" y="0" width="900" height="600" fill="#ffffff"></rect><g transform="translate(-39.58734015376811 12.886319660556637)"><path d="M262.3 -358C333 -309.7 378.6 -223.8 412.8 -131.1C447 -38.5 469.8 60.8 443.6 145C417.4 229.1 342.1 298.2 260 333.4C177.9 368.5 89 369.8 -7 379.3C-102.9 388.9 -205.7 406.8 -257.7 361.9C-309.7 317 -310.9 209.2 -328.4 116C-346 22.8 -379.8 -55.8 -375.4 -138.2C-371 -220.7 -328.3 -306.9 -259.4 -355.9C-190.4 -404.8 -95.2 -416.4 0.3 -416.8C95.8 -417.2 191.6 -406.4 262.3 -358" fill="#d31837"></path></g></svg>